<svg width="2272" height="1797" viewBox="0 0 2272 1797" fill="none" xmlns="http://www.w3.org/2000/svg">
<path d="M476.157 473.954L1208.74 731.813L254.73 732.05L18.7285 460.084L476.157 473.954Z" fill="white"/>
<path d="M476.157 473.954L1208.74 731.813L254.73 732.05L18.7285 460.084L476.157 473.954Z" fill="white"/>
<path d="M480.491 1323.66L1213.08 1065.8L259.063 1065.56L23.0623 1337.53L480.491 1323.66Z" fill="white"/>
<path d="M480.491 1323.66L1213.08 1065.8L259.063 1065.56L23.0623 1337.53L480.491 1323.66Z" fill="white"/>
<path d="M1535.79 1026.83C1679.07 1026.53 1760.4 1023.62 1901.66 999.655C2049.23 974.615 2271.43 898.809 2271.43 898.809C2271.43 898.809 2036.85 825.847 1882.14 800.13C1748.14 777.856 1671.63 768.163 1535.79 768.039C1047.17 767.597 255.697 768.036 255.697 768.036L255.698 1026.82C255.698 1026.82 1038.49 1027.85 1535.79 1026.83Z" fill="white"/>
</svg>
