<svg width="1796" height="2271" viewBox="0 0 1796 2271" fill="none" xmlns="http://www.w3.org/2000/svg">
<path d="M473.013 1795.28L730.872 1062.69L731.108 2016.7L459.143 2252.7L473.013 1795.28Z" fill="white"/>
<path d="M473.013 1795.28L730.872 1062.69L731.108 2016.7L459.143 2252.7L473.013 1795.28Z" fill="white"/>
<path d="M1322.72 1790.94L1064.86 1058.36L1064.62 2012.37L1336.58 2248.37L1322.72 1790.94Z" fill="white"/>
<path d="M1322.72 1790.94L1064.86 1058.36L1064.62 2012.37L1336.58 2248.37L1322.72 1790.94Z" fill="white"/>
<path d="M1025.88 735.639C1025.59 592.366 1022.68 511.027 998.713 369.772C973.674 222.203 897.867 0.000303224 897.867 0.000303224C897.867 0.000303224 824.905 234.579 799.188 389.292C776.914 523.29 767.221 599.803 767.098 735.64C766.655 1224.26 767.095 2015.73 767.095 2015.73L1025.88 2015.73C1025.88 2015.73 1026.91 1232.94 1025.88 735.639Z" fill="white"/>
</svg>
